<?xml version="1.0" encoding="utf-8"?>
<!-- Generator: Adobe Illustrator 27.9.0, SVG Export Plug-In . SVG Version: 6.00 Build 0)  -->
<svg version="1.1" id="Layer_1" xmlns="http://www.w3.org/2000/svg" xmlns:xlink="http://www.w3.org/1999/xlink" x="0px" y="0px"
	 viewBox="0 0 200 43.2" style="enable-background:new 0 0 200 43.2;" xml:space="preserve">
<style type="text/css">
	.st0{fill:#399CFC;}
	.st1{fill:#6B60FA;}
</style>
<path class="st0" d="M42.8,8.9c-6.6-5.7-19.2-5.5-19.2-5.5S11.1,3.2,4.5,8.9c-1,9.6,1.5,16.5,5,21.3L16,18.9
	c-0.1-0.2-0.2-0.3-0.2-0.5c-0.3-0.8-0.2-1.6,0.2-2.4c0.5-1.1,1.6-1.7,2.8-1.7c0.2,0,0.4,0,0.6,0.1c0.6-0.9,1.6-1.5,2.7-1.5
	c0.5,0,1,0.1,1.5,0.3c0.3,0.2,0.6,0.4,0.9,0.6c0.5-0.3,1-0.4,1.6-0.4c0.5,0,1,0.1,1.5,0.4c1,0.5,1.7,1.5,1.8,2.5
	c0.4,0,0.7,0.2,1,0.3c1.5,0.7,2.1,2.5,1.6,4c0.4,0.4,0.7,0.8,0.9,1.3c0.3,0.8,0.2,1.6-0.2,2.4c-0.5,0.9-1.4,1.6-2.4,1.7L22,40.2
	c1,0.4,1.6,0.6,1.6,0.6S45.5,34.1,42.8,8.9z"/>
<path class="st1" d="M145.2,10.7c-5.3,0-9.6,4.3-9.6,9.6s4.3,9.6,9.6,9.6c5.3,0,9.6-4.3,9.6-9.6S150.5,10.7,145.2,10.7z M145.2,24.3
	c-2.2,0-4-1.8-4-4s1.8-4,4-4c2.2,0,4,1.8,4,4S147.4,24.3,145.2,24.3z"/>
<path class="st1" d="M112,29.8v-9.5c0-5.3-4.3-9.6-9.6-9.6s-9.6,4.3-9.6,9.6v9.5h5.6v-9.5c0-2.2,1.8-4,4-4c2.2,0,4,1.8,4,4v9.5H112z
	"/>
<path class="st1" d="M89.4,20.3c0-5.3-4.3-9.5-9.6-9.5c-5.3,0-9.6,4.3-9.6,9.6s4.3,9.6,9.6,9.6c1.7,0,3.4-0.5,4.8-1.3V30h4.8
	L89.4,20.3z M79.8,24.3c-2.2,0-4-1.8-4-4s1.8-4,4-4c2.2,0,4,1.8,4,4S82,24.3,79.8,24.3z"/>
<path class="st1" d="M48.9,33.4h4.8v-4.7c1.4,0.8,3,1.3,4.8,1.3c5.3,0,9.6-4.3,9.6-9.6s-4.3-9.6-9.6-9.6c-5.3,0-9.6,4.3-9.6,9.5
	L48.9,33.4z M54.6,20.4c0-2.2,1.8-4,4-4c2.2,0,4,1.8,4,4s-1.8,4-4,4C56.3,24.3,54.6,22.6,54.6,20.4z"/>
<path class="st1" d="M131.5,20.4L131.5,20.4l-6.6,0v2.9h1.5c-0.7,0.7-1.7,1.1-2.7,1.1c-2.2,0-4-1.8-4-4s1.8-4,4-4
	c1.3,0,2.5,0.7,3.2,1.7h6.1c-1-4.2-4.8-7.3-9.3-7.3c-5.3,0-9.6,4.3-9.6,9.6s4.3,9.6,9.6,9.6s9.6-4.3,9.6-9.6H131.5z"/>
<path class="st0" d="M172.5,23.4c-1,2.2-3.2,3.6-5.7,3.6c-3.5,0-6.3-2.8-6.3-6.3s2.8-6.3,6.3-6.3c2.7,0,5,1.7,5.9,4.1h2.9
	c-1-4-4.6-7-8.9-7c-5.1,0-9.1,4.1-9.1,9.1s4.1,9.1,9.1,9.1c4.1,0,7.6-2.7,8.7-6.5H172.5z"/>
<path class="st0" d="M195.8,20.4h-8.8v2.5h5.6c-0.9,2.4-3.2,4.2-6,4.2c-3.5,0-6.3-2.8-6.3-6.3s2.8-6.3,6.3-6.3
	c2.4,0,4.5,1.4,5.6,3.3h3.1c-1.2-3.6-4.6-6.2-8.6-6.2c-5.1,0-9.1,4.1-9.1,9.1s4.1,9.1,9.1,9.1c5.1,0,9.1-4.1,9.1-9.1
	C195.8,20.6,195.8,20.5,195.8,20.4z"/>
<path class="st1" d="M24.9,27.5c-0.4,0-0.7-0.1-1-0.2c-0.5-0.2-1-0.5-1.3-1c-0.6-0.8-1.5-1.3-2.5-1.3c-0.5,0-1.1-0.2-1.5-0.5
	c-1.1-0.7-1.5-2.1-1.1-3.3c0.4-1.2,1.4-1.9,2.7-1.9c0.1,0,0.1,0,0.2,0c0.1,0,0.2,0,0.2,0c0.6,0,1.1-0.1,1.6-0.4
	c0.4-0.2,0.8-0.3,1.3-0.3c0.5,0,0.9,0.1,1.3,0.3c0.8,0.4,1.4,1.2,1.5,2.1c0.1,0.7,0.4,1.3,0.8,1.8c0.8,1,0.8,2.4,0.1,3.4
	C26.7,27,25.8,27.5,24.9,27.5C24.9,27.5,24.9,27.5,24.9,27.5z"/>
<circle class="st1" cx="25.9" cy="16.8" r="1.6"/>
<circle class="st1" cx="22" cy="16.1" r="1.5"/>
<circle class="st1" cx="18.7" cy="17.4" r="1.3"/>
<circle class="st1" cx="28.8" cy="19.5" r="1.5"/>
<circle class="st1" cx="29.8" cy="22.9" r="1.3"/>
</svg>
